<mxfile host="app.diagrams.net" modified="2022-12-04T09:38:39.841Z" agent="5.0 (Macintosh; Intel Mac OS X 10_15_7) AppleWebKit/537.36 (KHTML, like Gecko) Chrome/107.0.0.0 Safari/537.36" etag="CGwo7NIXj_4YAeWEhOB_" version="20.5.1" type="github" pages="3">
  <diagram id="5oMd8jQUyTVnU2nmaPUR" name="业务流程">
    <mxGraphModel dx="946" dy="614" grid="1" gridSize="10" guides="1" tooltips="1" connect="1" arrows="1" fold="1" page="1" pageScale="1" pageWidth="827" pageHeight="1169" math="0" shadow="0">
      <root>
        <mxCell id="0" />
        <mxCell id="1" parent="0" />
        <mxCell id="nKAvX6BTVIMCWCO14RXr-1" value="" style="rounded=0;whiteSpace=wrap;html=1;fontSize=18;strokeColor=#56517e;fillColor=#C9E0E2;" vertex="1" parent="1">
          <mxGeometry x="60" y="48" width="760" height="370" as="geometry" />
        </mxCell>
        <mxCell id="nKAvX6BTVIMCWCO14RXr-2" value="" style="rounded=1;whiteSpace=wrap;html=1;fontSize=14;dashed=1;fillColor=none;strokeColor=#FFFFFF;" vertex="1" parent="1">
          <mxGeometry x="689" y="107" width="110" height="113" as="geometry" />
        </mxCell>
        <mxCell id="nKAvX6BTVIMCWCO14RXr-3" value="" style="rounded=1;whiteSpace=wrap;html=1;fontSize=14;dashed=1;fillColor=none;strokeColor=#FFFFFF;strokeWidth=1;" vertex="1" parent="1">
          <mxGeometry x="545" y="107" width="110" height="153" as="geometry" />
        </mxCell>
        <mxCell id="nKAvX6BTVIMCWCO14RXr-4" value="" style="rounded=1;whiteSpace=wrap;html=1;fontSize=14;dashed=1;fillColor=none;strokeColor=#FFFFFF;" vertex="1" parent="1">
          <mxGeometry x="370" y="107" width="110" height="301" as="geometry" />
        </mxCell>
        <mxCell id="nKAvX6BTVIMCWCO14RXr-5" value="" style="rounded=1;whiteSpace=wrap;html=1;fontSize=14;dashed=1;fillColor=none;strokeColor=#FFFFFF;" vertex="1" parent="1">
          <mxGeometry x="210" y="107" width="110" height="263" as="geometry" />
        </mxCell>
        <mxCell id="nKAvX6BTVIMCWCO14RXr-6" value="" style="rounded=1;whiteSpace=wrap;html=1;fontSize=14;dashed=1;fillColor=none;strokeColor=#FFFFFF;" vertex="1" parent="1">
          <mxGeometry x="85" y="107" width="110" height="163" as="geometry" />
        </mxCell>
        <mxCell id="nKAvX6BTVIMCWCO14RXr-7" value="营销B补策略调控" style="rounded=1;whiteSpace=wrap;html=1;fontSize=18;fillColor=#1ba1e2;strokeColor=#006EAF;fontColor=#ffffff;" vertex="1" parent="1">
          <mxGeometry x="10" y="48" width="40" height="370" as="geometry" />
        </mxCell>
        <mxCell id="nKAvX6BTVIMCWCO14RXr-8" value="圈商配置" style="html=1;shadow=0;dashed=0;align=center;verticalAlign=middle;shape=mxgraph.arrows2.arrow;dy=0;dx=23.73;notch=21.27;fontSize=14;fillColor=#fa6800;strokeColor=#C73500;fontColor=#ffffff;" vertex="1" parent="1">
          <mxGeometry x="210" y="58" width="120" height="40" as="geometry" />
        </mxCell>
        <mxCell id="nKAvX6BTVIMCWCO14RXr-9" value="策略配置" style="html=1;shadow=0;dashed=0;align=center;verticalAlign=middle;shape=mxgraph.arrows2.arrow;dy=0;dx=23.73;notch=21.27;fontSize=14;fillColor=#f0a30a;strokeColor=#BD7000;fontColor=#ffffff;" vertex="1" parent="1">
          <mxGeometry x="340" y="58" width="170" height="40" as="geometry" />
        </mxCell>
        <mxCell id="nKAvX6BTVIMCWCO14RXr-10" value="策略调控" style="html=1;shadow=0;dashed=0;align=center;verticalAlign=middle;shape=mxgraph.arrows2.arrow;dy=0;dx=23.73;notch=21.27;fontSize=14;fillColor=#e3c800;strokeColor=#B09500;fontColor=#ffffff;" vertex="1" parent="1">
          <mxGeometry x="520" y="58" width="160" height="40" as="geometry" />
        </mxCell>
        <mxCell id="nKAvX6BTVIMCWCO14RXr-11" value="数据复盘" style="html=1;shadow=0;dashed=0;align=center;verticalAlign=middle;shape=mxgraph.arrows2.arrow;dy=0;dx=23.73;notch=21.27;fontSize=14;fillColor=#a0522d;strokeColor=#6D1F00;fontColor=#ffffff;" vertex="1" parent="1">
          <mxGeometry x="685" y="58" width="120" height="40" as="geometry" />
        </mxCell>
        <mxCell id="nKAvX6BTVIMCWCO14RXr-12" value="城市" style="rounded=1;whiteSpace=wrap;html=1;fontSize=14;fillColor=#ffcd28;strokeColor=#d79b00;gradientColor=#ffa500;" vertex="1" parent="1">
          <mxGeometry x="220" y="118" width="90" height="30" as="geometry" />
        </mxCell>
        <mxCell id="nKAvX6BTVIMCWCO14RXr-13" value="业务线" style="rounded=1;whiteSpace=wrap;html=1;fontSize=14;gradientColor=#ffa500;fillColor=#ffcd28;strokeColor=#d79b00;" vertex="1" parent="1">
          <mxGeometry x="220" y="168" width="90" height="30" as="geometry" />
        </mxCell>
        <mxCell id="nKAvX6BTVIMCWCO14RXr-14" value="Bu Flag" style="rounded=1;whiteSpace=wrap;html=1;fontSize=14;gradientColor=#ffa500;fillColor=#ffcd28;strokeColor=#d79b00;" vertex="1" parent="1">
          <mxGeometry x="220" y="218" width="90" height="30" as="geometry" />
        </mxCell>
        <mxCell id="nKAvX6BTVIMCWCO14RXr-15" value="算法推荐" style="rounded=1;whiteSpace=wrap;html=1;fontSize=14;gradientColor=#ffa500;fillColor=#ffcd28;strokeColor=#d79b00;" vertex="1" parent="1">
          <mxGeometry x="220" y="268" width="90" height="30" as="geometry" />
        </mxCell>
        <mxCell id="nKAvX6BTVIMCWCO14RXr-16" value="……" style="rounded=1;whiteSpace=wrap;html=1;fontSize=14;gradientColor=#ffa500;fillColor=#ffcd28;strokeColor=#d79b00;" vertex="1" parent="1">
          <mxGeometry x="220" y="318" width="90" height="30" as="geometry" />
        </mxCell>
        <mxCell id="nKAvX6BTVIMCWCO14RXr-17" value="B补力度" style="rounded=1;whiteSpace=wrap;html=1;fontSize=14;" vertex="1" parent="1">
          <mxGeometry x="380" y="118" width="90" height="30" as="geometry" />
        </mxCell>
        <mxCell id="nKAvX6BTVIMCWCO14RXr-18" value="目标类型" style="rounded=1;whiteSpace=wrap;html=1;fontSize=14;gradientColor=#ffa500;fillColor=#ffcd28;strokeColor=#d79b00;" vertex="1" parent="1">
          <mxGeometry x="380" y="168" width="90" height="30" as="geometry" />
        </mxCell>
        <mxCell id="nKAvX6BTVIMCWCO14RXr-19" value="商户下限" style="rounded=1;whiteSpace=wrap;html=1;fontSize=14;" vertex="1" parent="1">
          <mxGeometry x="380" y="218" width="90" height="30" as="geometry" />
        </mxCell>
        <mxCell id="nKAvX6BTVIMCWCO14RXr-20" value="平台上限" style="rounded=1;whiteSpace=wrap;html=1;fontSize=14;" vertex="1" parent="1">
          <mxGeometry x="380" y="268" width="90" height="30" as="geometry" />
        </mxCell>
        <mxCell id="nKAvX6BTVIMCWCO14RXr-21" value="策略排序" style="rounded=1;whiteSpace=wrap;html=1;fontSize=14;" vertex="1" parent="1">
          <mxGeometry x="556" y="118" width="90" height="30" as="geometry" />
        </mxCell>
        <mxCell id="nKAvX6BTVIMCWCO14RXr-22" value="策略变更" style="rounded=1;whiteSpace=wrap;html=1;fontSize=14;gradientColor=#ffa500;fillColor=#ffcd28;strokeColor=#d79b00;" vertex="1" parent="1">
          <mxGeometry x="556" y="168" width="90" height="30" as="geometry" />
        </mxCell>
        <mxCell id="nKAvX6BTVIMCWCO14RXr-23" value="……" style="rounded=1;whiteSpace=wrap;html=1;fontSize=14;" vertex="1" parent="1">
          <mxGeometry x="556" y="218" width="90" height="30" as="geometry" />
        </mxCell>
        <mxCell id="nKAvX6BTVIMCWCO14RXr-25" value="时间周期" style="rounded=1;whiteSpace=wrap;html=1;fontSize=14;" vertex="1" parent="1">
          <mxGeometry x="380" y="318" width="90" height="30" as="geometry" />
        </mxCell>
        <mxCell id="nKAvX6BTVIMCWCO14RXr-26" value="……" style="rounded=1;whiteSpace=wrap;html=1;fontSize=14;" vertex="1" parent="1">
          <mxGeometry x="380" y="368" width="90" height="30" as="geometry" />
        </mxCell>
        <mxCell id="nKAvX6BTVIMCWCO14RXr-27" value="工具选择" style="html=1;shadow=0;dashed=0;align=center;verticalAlign=middle;shape=mxgraph.arrows2.arrow;dy=0;dx=23.73;notch=21.27;fontSize=14;fillColor=#e51400;strokeColor=#B20000;fontColor=#ffffff;" vertex="1" parent="1">
          <mxGeometry x="80" y="58" width="120" height="40" as="geometry" />
        </mxCell>
        <mxCell id="nKAvX6BTVIMCWCO14RXr-28" value="爆红包" style="rounded=1;whiteSpace=wrap;html=1;fontSize=14;gradientColor=#ffa500;fillColor=#ffcd28;strokeColor=#d79b00;" vertex="1" parent="1">
          <mxGeometry x="95" y="118" width="90" height="30" as="geometry" />
        </mxCell>
        <mxCell id="nKAvX6BTVIMCWCO14RXr-29" value="超会BD直上" style="rounded=1;whiteSpace=wrap;html=1;fontSize=14;gradientColor=#ffa500;fillColor=#ffcd28;strokeColor=#d79b00;" vertex="1" parent="1">
          <mxGeometry x="95" y="167.5" width="90" height="30" as="geometry" />
        </mxCell>
        <mxCell id="nKAvX6BTVIMCWCO14RXr-30" value="策略效果" style="rounded=1;whiteSpace=wrap;html=1;fontSize=14;" vertex="1" parent="1">
          <mxGeometry x="700" y="118" width="90" height="30" as="geometry" />
        </mxCell>
        <mxCell id="nKAvX6BTVIMCWCO14RXr-31" value="……" style="rounded=1;whiteSpace=wrap;html=1;fontSize=14;gradientColor=#ffa500;fillColor=#ffcd28;strokeColor=#d79b00;" vertex="1" parent="1">
          <mxGeometry x="700" y="168" width="90" height="30" as="geometry" />
        </mxCell>
        <mxCell id="nKAvX6BTVIMCWCO14RXr-33" value="" style="rounded=0;whiteSpace=wrap;html=1;fontSize=14;gradientColor=#ffa500;fillColor=#ffcd28;strokeColor=#d79b00;" vertex="1" parent="1">
          <mxGeometry x="696" y="10" width="20" height="20" as="geometry" />
        </mxCell>
        <mxCell id="nKAvX6BTVIMCWCO14RXr-34" value="变化点" style="text;html=1;align=center;verticalAlign=middle;resizable=0;points=[];autosize=1;fontSize=14;" vertex="1" parent="1">
          <mxGeometry x="719" y="10" width="60" height="20" as="geometry" />
        </mxCell>
        <mxCell id="nKAvX6BTVIMCWCO14RXr-35" value="" style="rounded=0;whiteSpace=wrap;html=1;fontSize=14;" vertex="1" parent="1">
          <mxGeometry x="590" y="10" width="20" height="20" as="geometry" />
        </mxCell>
        <mxCell id="nKAvX6BTVIMCWCO14RXr-36" value="现有能力" style="text;html=1;align=center;verticalAlign=middle;resizable=0;points=[];autosize=1;fontSize=14;" vertex="1" parent="1">
          <mxGeometry x="611" y="10" width="70" height="20" as="geometry" />
        </mxCell>
        <mxCell id="nKAvX6BTVIMCWCO14RXr-37" value="……" style="rounded=1;whiteSpace=wrap;html=1;fontSize=14;gradientColor=#ffa500;fillColor=#ffcd28;strokeColor=#d79b00;" vertex="1" parent="1">
          <mxGeometry x="95" y="218" width="90" height="30" as="geometry" />
        </mxCell>
      </root>
    </mxGraphModel>
  </diagram>
  <diagram id="NuhbEiyONgqpR6ZVbiyx" name="产品流程">
    <mxGraphModel dx="1892" dy="1228" grid="1" gridSize="10" guides="1" tooltips="1" connect="1" arrows="1" fold="1" page="1" pageScale="1" pageWidth="827" pageHeight="1169" math="0" shadow="0">
      <root>
        <mxCell id="0" />
        <mxCell id="1" parent="0" />
        <mxCell id="8dWo22y_z9SqL70TQzN5-4" value="行业招商" style="rounded=0;whiteSpace=wrap;html=1;strokeWidth=1;fontSize=25;fontColor=#ffffff;align=center;fontStyle=1;fillColor=#1ba1e2;strokeColor=#006EAF;" vertex="1" parent="1">
          <mxGeometry x="110" y="60" width="140" height="40" as="geometry" />
        </mxCell>
        <mxCell id="8dWo22y_z9SqL70TQzN5-5" value="平台玩法" style="rounded=0;whiteSpace=wrap;html=1;strokeWidth=1;fontSize=25;fontColor=#ffffff;align=center;fontStyle=1;fillColor=#1ba1e2;strokeColor=#006EAF;" vertex="1" parent="1">
          <mxGeometry x="870" y="60" width="140" height="40" as="geometry" />
        </mxCell>
        <mxCell id="8dWo22y_z9SqL70TQzN5-6" value="营销策略" style="rounded=0;whiteSpace=wrap;html=1;strokeWidth=1;fontSize=25;fontColor=#ffffff;align=center;fontStyle=1;fillColor=#1ba1e2;strokeColor=#006EAF;" vertex="1" parent="1">
          <mxGeometry x="390" y="60" width="140" height="40" as="geometry" />
        </mxCell>
        <mxCell id="8dWo22y_z9SqL70TQzN5-7" value="行业玩法" style="rounded=0;whiteSpace=wrap;html=1;strokeWidth=1;fontSize=25;fontColor=#ffffff;align=center;fontStyle=1;fillColor=#1ba1e2;strokeColor=#006EAF;" vertex="1" parent="1">
          <mxGeometry x="630" y="60" width="140" height="40" as="geometry" />
        </mxCell>
        <mxCell id="8dWo22y_z9SqL70TQzN5-8" value="导购/交易" style="rounded=0;whiteSpace=wrap;html=1;strokeWidth=1;fontSize=25;fontColor=#ffffff;align=center;fontStyle=1;fillColor=#1ba1e2;strokeColor=#006EAF;" vertex="1" parent="1">
          <mxGeometry x="1610" y="60" width="140" height="40" as="geometry" />
        </mxCell>
        <mxCell id="8dWo22y_z9SqL70TQzN5-12" style="edgeStyle=orthogonalEdgeStyle;rounded=0;orthogonalLoop=1;jettySize=auto;html=1;exitX=0.5;exitY=1;exitDx=0;exitDy=0;entryX=0.5;entryY=0;entryDx=0;entryDy=0;fontSize=18;fontColor=#000000;strokeWidth=3;" edge="1" parent="1" source="8dWo22y_z9SqL70TQzN5-13" target="8dWo22y_z9SqL70TQzN5-26">
          <mxGeometry relative="1" as="geometry" />
        </mxCell>
        <mxCell id="8dWo22y_z9SqL70TQzN5-13" value="&lt;b&gt;&lt;font style=&quot;font-size: 22px&quot;&gt;2. 发布招商&lt;/font&gt;&lt;/b&gt;&lt;br style=&quot;font-size: 18px&quot;&gt;报名要求&lt;br&gt;圈商范围&lt;br style=&quot;font-size: 18px&quot;&gt;出资规则&lt;br style=&quot;font-size: 18px&quot;&gt;时间周期" style="rounded=0;whiteSpace=wrap;html=1;strokeWidth=1;fontSize=18;fontColor=#000000;align=center;verticalAlign=top;" vertex="1" parent="1">
          <mxGeometry x="120" y="260" width="120" height="120" as="geometry" />
        </mxCell>
        <mxCell id="8dWo22y_z9SqL70TQzN5-14" value="B端链路" style="rounded=0;whiteSpace=wrap;html=1;strokeWidth=1;fontSize=25;align=center;gradientColor=#ffa500;fillColor=#ffcd28;strokeColor=#d79b00;" vertex="1" parent="1">
          <mxGeometry x="40" y="10" width="1010" height="35" as="geometry" />
        </mxCell>
        <mxCell id="8dWo22y_z9SqL70TQzN5-23" style="edgeStyle=orthogonalEdgeStyle;rounded=0;orthogonalLoop=1;jettySize=auto;html=1;exitX=1;exitY=0.5;exitDx=0;exitDy=0;entryX=0;entryY=0.5;entryDx=0;entryDy=0;fontSize=18;fontColor=#000000;strokeWidth=3;" edge="1" parent="1" source="8dWo22y_z9SqL70TQzN5-26" target="8dWo22y_z9SqL70TQzN5-28">
          <mxGeometry relative="1" as="geometry" />
        </mxCell>
        <mxCell id="8dWo22y_z9SqL70TQzN5-24" value="活动创建" style="edgeLabel;html=1;align=center;verticalAlign=middle;resizable=0;points=[];fontSize=18;fontColor=#000000;" vertex="1" connectable="0" parent="8dWo22y_z9SqL70TQzN5-23">
          <mxGeometry x="-0.5579" y="6" relative="1" as="geometry">
            <mxPoint x="-8" y="-8" as="offset" />
          </mxGeometry>
        </mxCell>
        <mxCell id="8dWo22y_z9SqL70TQzN5-26" value="&lt;b&gt;&lt;font style=&quot;font-size: 22px&quot;&gt;3. 商户报名&lt;/font&gt;&lt;/b&gt;&lt;br style=&quot;font-size: 18px&quot;&gt;商户出资" style="rounded=0;whiteSpace=wrap;html=1;strokeWidth=1;fontSize=18;fontColor=#000000;align=center;verticalAlign=top;" vertex="1" parent="1">
          <mxGeometry x="120" y="495" width="120" height="120" as="geometry" />
        </mxCell>
        <mxCell id="v_WaZDUk3BbskPpl2pJ--12" style="edgeStyle=orthogonalEdgeStyle;rounded=0;orthogonalLoop=1;jettySize=auto;html=1;entryX=0;entryY=0.6;entryDx=0;entryDy=0;strokeWidth=3;fontSize=18;entryPerimeter=0;" edge="1" parent="1" source="8dWo22y_z9SqL70TQzN5-28" target="v_WaZDUk3BbskPpl2pJ--13">
          <mxGeometry relative="1" as="geometry" />
        </mxCell>
        <mxCell id="8dWo22y_z9SqL70TQzN5-28" value="创建活动" style="whiteSpace=wrap;html=1;strokeWidth=1;fontSize=18;fontColor=#000000;align=center;" vertex="1" parent="1">
          <mxGeometry x="670.25" y="540" width="85" height="30" as="geometry" />
        </mxCell>
        <mxCell id="8dWo22y_z9SqL70TQzN5-37" value="C端链路" style="rounded=0;whiteSpace=wrap;html=1;strokeWidth=1;fontSize=25;align=center;fillColor=#dae8fc;strokeColor=#6c8ebf;gradientColor=#7ea6e0;" vertex="1" parent="1">
          <mxGeometry x="1060" y="10" width="720" height="35" as="geometry" />
        </mxCell>
        <mxCell id="8dWo22y_z9SqL70TQzN5-41" style="edgeStyle=orthogonalEdgeStyle;rounded=0;orthogonalLoop=1;jettySize=auto;html=1;exitX=0;exitY=0.5;exitDx=0;exitDy=0;fontSize=18;fontColor=#000000;strokeWidth=3;" edge="1" parent="1" source="v_WaZDUk3BbskPpl2pJ--16" target="8dWo22y_z9SqL70TQzN5-42">
          <mxGeometry relative="1" as="geometry">
            <mxPoint x="1450" y="760" as="targetPoint" />
          </mxGeometry>
        </mxCell>
        <mxCell id="v_WaZDUk3BbskPpl2pJ--33" value="算价" style="edgeLabel;html=1;align=center;verticalAlign=middle;resizable=0;points=[];fontSize=18;" vertex="1" connectable="0" parent="8dWo22y_z9SqL70TQzN5-41">
          <mxGeometry x="-0.4308" relative="1" as="geometry">
            <mxPoint x="-1" y="-14" as="offset" />
          </mxGeometry>
        </mxCell>
        <mxCell id="8dWo22y_z9SqL70TQzN5-42" value="" style="rounded=0;whiteSpace=wrap;html=1;strokeWidth=1;fontSize=18;fontColor=#000000;align=center;dashed=1;" vertex="1" parent="1">
          <mxGeometry x="1370" y="615" width="120" height="140" as="geometry" />
        </mxCell>
        <mxCell id="8dWo22y_z9SqL70TQzN5-43" value="查询活动" style="whiteSpace=wrap;html=1;strokeWidth=1;fontSize=18;fontColor=#000000;align=center;" vertex="1" parent="1">
          <mxGeometry x="1387.5" y="627.5" width="85" height="30" as="geometry" />
        </mxCell>
        <mxCell id="8dWo22y_z9SqL70TQzN5-44" value="算法调控" style="whiteSpace=wrap;html=1;strokeWidth=1;fontSize=18;fontColor=#000000;align=center;" vertex="1" parent="1">
          <mxGeometry x="1387.5" y="672.5" width="85" height="30" as="geometry" />
        </mxCell>
        <mxCell id="8dWo22y_z9SqL70TQzN5-45" value="算法" style="rounded=0;whiteSpace=wrap;html=1;strokeWidth=1;fontSize=25;fontColor=#ffffff;align=center;fontStyle=1;fillColor=#1ba1e2;strokeColor=#006EAF;" vertex="1" parent="1">
          <mxGeometry x="1111.87" y="60" width="140" height="40" as="geometry" />
        </mxCell>
        <mxCell id="8dWo22y_z9SqL70TQzN5-46" style="edgeStyle=orthogonalEdgeStyle;rounded=0;orthogonalLoop=1;jettySize=auto;html=1;dashed=1;fontSize=18;fontColor=#000000;strokeWidth=3;" edge="1" parent="1" source="v_WaZDUk3BbskPpl2pJ--21">
          <mxGeometry relative="1" as="geometry">
            <mxPoint x="1240" y="719.5" as="sourcePoint" />
            <mxPoint x="1370" y="720" as="targetPoint" />
          </mxGeometry>
        </mxCell>
        <mxCell id="8dWo22y_z9SqL70TQzN5-48" style="edgeStyle=orthogonalEdgeStyle;rounded=0;orthogonalLoop=1;jettySize=auto;html=1;exitX=1;exitY=0.5;exitDx=0;exitDy=0;entryX=0;entryY=0.25;entryDx=0;entryDy=0;dashed=1;fontSize=18;fontColor=#000000;strokeWidth=3;" edge="1" parent="1" source="8dWo22y_z9SqL70TQzN5-52" target="8dWo22y_z9SqL70TQzN5-42">
          <mxGeometry relative="1" as="geometry" />
        </mxCell>
        <mxCell id="8dWo22y_z9SqL70TQzN5-49" value="活动查询" style="edgeLabel;html=1;align=center;verticalAlign=middle;resizable=0;points=[];fontSize=18;fontColor=#000000;" vertex="1" connectable="0" parent="8dWo22y_z9SqL70TQzN5-48">
          <mxGeometry x="-0.1054" y="8" relative="1" as="geometry">
            <mxPoint x="-105" y="-14" as="offset" />
          </mxGeometry>
        </mxCell>
        <mxCell id="8dWo22y_z9SqL70TQzN5-52" value="活动查询" style="whiteSpace=wrap;html=1;strokeWidth=1;fontSize=18;fontColor=#000000;align=center;" vertex="1" parent="1">
          <mxGeometry x="897.5" y="635" width="85" height="30" as="geometry" />
        </mxCell>
        <mxCell id="8dWo22y_z9SqL70TQzN5-54" value="&lt;b&gt;&lt;font style=&quot;font-size: 22px&quot;&gt;6. 交易支付&lt;/font&gt;&lt;/b&gt;&lt;br style=&quot;font-size: 18px&quot;&gt;提交订单&lt;br style=&quot;font-size: 18px&quot;&gt;订单支付" style="rounded=0;whiteSpace=wrap;html=1;strokeWidth=1;fontSize=18;fontColor=#000000;align=center;verticalAlign=top;" vertex="1" parent="1">
          <mxGeometry x="1620" y="860" width="120" height="120" as="geometry" />
        </mxCell>
        <mxCell id="8dWo22y_z9SqL70TQzN5-55" value="裁剪结果" style="whiteSpace=wrap;html=1;strokeWidth=1;fontSize=18;fontColor=#000000;align=center;" vertex="1" parent="1">
          <mxGeometry x="1387.5" y="712.5" width="85" height="30" as="geometry" />
        </mxCell>
        <mxCell id="v_WaZDUk3BbskPpl2pJ--20" value="" style="edgeStyle=orthogonalEdgeStyle;rounded=0;orthogonalLoop=1;jettySize=auto;html=1;strokeWidth=3;fontSize=18;" edge="1" parent="1" source="8dWo22y_z9SqL70TQzN5-67">
          <mxGeometry relative="1" as="geometry">
            <mxPoint x="663" y="1125" as="targetPoint" />
          </mxGeometry>
        </mxCell>
        <mxCell id="8dWo22y_z9SqL70TQzN5-76" value="" style="endArrow=none;dashed=1;html=1;strokeWidth=1;fontSize=25;fontColor=#000000;strokeColor=#666666;" edge="1" parent="1">
          <mxGeometry width="50" height="50" relative="1" as="geometry">
            <mxPoint x="320" y="990" as="sourcePoint" />
            <mxPoint x="320" y="40" as="targetPoint" />
          </mxGeometry>
        </mxCell>
        <mxCell id="8dWo22y_z9SqL70TQzN5-77" value="" style="endArrow=none;dashed=1;html=1;strokeWidth=1;fontSize=25;fontColor=#000000;strokeColor=#666666;entryX=0.534;entryY=1.153;entryDx=0;entryDy=0;entryPerimeter=0;" edge="1" parent="1" target="8dWo22y_z9SqL70TQzN5-14">
          <mxGeometry width="50" height="50" relative="1" as="geometry">
            <mxPoint x="579" y="980" as="sourcePoint" />
            <mxPoint x="576" y="60" as="targetPoint" />
          </mxGeometry>
        </mxCell>
        <mxCell id="8dWo22y_z9SqL70TQzN5-78" value="" style="endArrow=none;dashed=1;html=1;strokeWidth=1;fontSize=25;fontColor=#000000;strokeColor=#666666;" edge="1" parent="1">
          <mxGeometry width="50" height="50" relative="1" as="geometry">
            <mxPoint x="826" y="980" as="sourcePoint" />
            <mxPoint x="826" y="50" as="targetPoint" />
          </mxGeometry>
        </mxCell>
        <mxCell id="8dWo22y_z9SqL70TQzN5-79" value="" style="endArrow=none;dashed=1;html=1;strokeWidth=1;fontSize=25;fontColor=#000000;strokeColor=#666666;entryX=0;entryY=1;entryDx=0;entryDy=0;" edge="1" parent="1" target="8dWo22y_z9SqL70TQzN5-14">
          <mxGeometry width="50" height="50" relative="1" as="geometry">
            <mxPoint x="40" y="990" as="sourcePoint" />
            <mxPoint x="40" y="60" as="targetPoint" />
          </mxGeometry>
        </mxCell>
        <mxCell id="8dWo22y_z9SqL70TQzN5-80" value="" style="endArrow=none;dashed=1;html=1;strokeWidth=1;fontSize=25;fontColor=#000000;strokeColor=#666666;" edge="1" parent="1">
          <mxGeometry width="50" height="50" relative="1" as="geometry">
            <mxPoint x="1310" y="990" as="sourcePoint" />
            <mxPoint x="1310" y="60" as="targetPoint" />
          </mxGeometry>
        </mxCell>
        <mxCell id="8dWo22y_z9SqL70TQzN5-81" value="" style="endArrow=none;dashed=1;html=1;strokeWidth=1;fontSize=25;fontColor=#000000;strokeColor=#666666;" edge="1" parent="1">
          <mxGeometry width="50" height="50" relative="1" as="geometry">
            <mxPoint x="1060" y="990" as="sourcePoint" />
            <mxPoint x="1060" y="60" as="targetPoint" />
          </mxGeometry>
        </mxCell>
        <mxCell id="8dWo22y_z9SqL70TQzN5-82" value="" style="endArrow=none;dashed=1;html=1;strokeWidth=1;fontSize=25;fontColor=#000000;strokeColor=#666666;" edge="1" parent="1">
          <mxGeometry width="50" height="50" relative="1" as="geometry">
            <mxPoint x="1550" y="980" as="sourcePoint" />
            <mxPoint x="1550" y="50" as="targetPoint" />
          </mxGeometry>
        </mxCell>
        <mxCell id="8dWo22y_z9SqL70TQzN5-83" value="" style="endArrow=none;dashed=1;html=1;strokeWidth=1;fontSize=25;fontColor=#000000;strokeColor=#666666;" edge="1" parent="1">
          <mxGeometry width="50" height="50" relative="1" as="geometry">
            <mxPoint x="1780" y="990" as="sourcePoint" />
            <mxPoint x="1780" y="45" as="targetPoint" />
          </mxGeometry>
        </mxCell>
        <mxCell id="8dWo22y_z9SqL70TQzN5-88" value="" style="endArrow=none;dashed=1;html=1;strokeWidth=2;fontSize=25;fontColor=#000000;" edge="1" parent="1">
          <mxGeometry width="50" height="50" relative="1" as="geometry">
            <mxPoint x="30" y="1000" as="sourcePoint" />
            <mxPoint x="1780" y="990" as="targetPoint" />
          </mxGeometry>
        </mxCell>
        <mxCell id="v_WaZDUk3BbskPpl2pJ--4" style="edgeStyle=orthogonalEdgeStyle;rounded=0;orthogonalLoop=1;jettySize=auto;html=1;strokeWidth=3;dashed=1;" edge="1" parent="1" source="v_WaZDUk3BbskPpl2pJ--2" target="v_WaZDUk3BbskPpl2pJ--3">
          <mxGeometry relative="1" as="geometry" />
        </mxCell>
        <mxCell id="v_WaZDUk3BbskPpl2pJ--5" value="策略同步" style="edgeLabel;html=1;align=center;verticalAlign=middle;resizable=0;points=[];fontSize=18;" vertex="1" connectable="0" parent="v_WaZDUk3BbskPpl2pJ--4">
          <mxGeometry x="-0.1013" y="3" relative="1" as="geometry">
            <mxPoint x="30" y="-12" as="offset" />
          </mxGeometry>
        </mxCell>
        <mxCell id="v_WaZDUk3BbskPpl2pJ--2" value="&lt;b&gt;&lt;font style=&quot;font-size: 22px&quot;&gt;1. 策略创建&lt;/font&gt;&lt;/b&gt;&lt;br style=&quot;font-size: 18px&quot;&gt;B补力度&lt;br&gt;出资规则" style="rounded=0;whiteSpace=wrap;html=1;strokeWidth=1;fontSize=18;fontColor=#000000;align=center;verticalAlign=top;" vertex="1" parent="1">
          <mxGeometry x="400" y="120" width="120" height="120" as="geometry" />
        </mxCell>
        <mxCell id="v_WaZDUk3BbskPpl2pJ--3" value="策略详情" style="whiteSpace=wrap;html=1;strokeWidth=1;fontSize=18;fontColor=#000000;align=center;" vertex="1" parent="1">
          <mxGeometry x="1132.12" y="165" width="99.5" height="30" as="geometry" />
        </mxCell>
        <mxCell id="v_WaZDUk3BbskPpl2pJ--7" style="edgeStyle=orthogonalEdgeStyle;rounded=0;orthogonalLoop=1;jettySize=auto;html=1;exitX=0;exitY=0.5;exitDx=0;exitDy=0;entryX=1;entryY=0.75;entryDx=0;entryDy=0;fontSize=18;fontColor=#000000;strokeWidth=3;startArrow=classic;startFill=1;endArrow=none;endFill=0;" edge="1" parent="1" source="v_WaZDUk3BbskPpl2pJ--9">
          <mxGeometry relative="1" as="geometry">
            <mxPoint x="240" y="510" as="targetPoint" />
          </mxGeometry>
        </mxCell>
        <mxCell id="v_WaZDUk3BbskPpl2pJ--8" value="策略咨询" style="edgeLabel;html=1;align=center;verticalAlign=middle;resizable=0;points=[];fontSize=18;fontColor=#000000;" vertex="1" connectable="0" parent="v_WaZDUk3BbskPpl2pJ--7">
          <mxGeometry x="-0.0207" y="-5" relative="1" as="geometry">
            <mxPoint x="-7" y="-15" as="offset" />
          </mxGeometry>
        </mxCell>
        <mxCell id="v_WaZDUk3BbskPpl2pJ--9" value="商户策略" style="whiteSpace=wrap;html=1;strokeWidth=1;fontSize=18;fontColor=#000000;align=center;" vertex="1" parent="1">
          <mxGeometry x="410.25" y="495" width="99.5" height="30" as="geometry" />
        </mxCell>
        <mxCell id="v_WaZDUk3BbskPpl2pJ--13" value="" style="rounded=0;whiteSpace=wrap;html=1;strokeWidth=1;fontSize=18;fontColor=#000000;align=center;dashed=1;" vertex="1" parent="1">
          <mxGeometry x="880" y="495" width="120" height="100" as="geometry" />
        </mxCell>
        <mxCell id="v_WaZDUk3BbskPpl2pJ--11" value="创建活动" style="whiteSpace=wrap;html=1;strokeWidth=1;fontSize=18;fontColor=#000000;align=center;" vertex="1" parent="1">
          <mxGeometry x="897.5" y="510" width="85" height="30" as="geometry" />
        </mxCell>
        <mxCell id="v_WaZDUk3BbskPpl2pJ--14" value="策略ID" style="whiteSpace=wrap;html=1;strokeWidth=1;fontSize=18;fontColor=#000000;align=center;" vertex="1" parent="1">
          <mxGeometry x="897.5" y="555" width="85" height="30" as="geometry" />
        </mxCell>
        <mxCell id="v_WaZDUk3BbskPpl2pJ--15" value="营销算价" style="rounded=0;whiteSpace=wrap;html=1;strokeWidth=1;fontSize=25;fontColor=#ffffff;align=center;fontStyle=1;fillColor=#1ba1e2;strokeColor=#006EAF;" vertex="1" parent="1">
          <mxGeometry x="1360" y="60" width="140" height="40" as="geometry" />
        </mxCell>
        <mxCell id="v_WaZDUk3BbskPpl2pJ--17" style="edgeStyle=orthogonalEdgeStyle;rounded=0;orthogonalLoop=1;jettySize=auto;html=1;exitX=0.5;exitY=1;exitDx=0;exitDy=0;strokeWidth=3;fontSize=18;" edge="1" parent="1" source="v_WaZDUk3BbskPpl2pJ--16" target="8dWo22y_z9SqL70TQzN5-54">
          <mxGeometry relative="1" as="geometry" />
        </mxCell>
        <mxCell id="v_WaZDUk3BbskPpl2pJ--16" value="&lt;b&gt;&lt;font style=&quot;font-size: 22px&quot;&gt;5. 优惠咨询&lt;/font&gt;&lt;/b&gt;" style="rounded=0;whiteSpace=wrap;html=1;strokeWidth=1;fontSize=18;fontColor=#000000;align=center;verticalAlign=top;" vertex="1" parent="1">
          <mxGeometry x="1620" y="625" width="120" height="120" as="geometry" />
        </mxCell>
        <mxCell id="v_WaZDUk3BbskPpl2pJ--21" value="" style="rounded=0;whiteSpace=wrap;html=1;strokeWidth=1;fontSize=18;fontColor=#000000;align=center;dashed=1;" vertex="1" parent="1">
          <mxGeometry x="1111.62" y="670.5" width="120" height="100" as="geometry" />
        </mxCell>
        <mxCell id="v_WaZDUk3BbskPpl2pJ--22" value="查询策略" style="whiteSpace=wrap;html=1;strokeWidth=1;fontSize=18;fontColor=#000000;align=center;" vertex="1" parent="1">
          <mxGeometry x="1129.12" y="685.5" width="85" height="30" as="geometry" />
        </mxCell>
        <mxCell id="v_WaZDUk3BbskPpl2pJ--23" value="计算B补/C补" style="whiteSpace=wrap;html=1;strokeWidth=1;fontSize=18;fontColor=#000000;align=center;" vertex="1" parent="1">
          <mxGeometry x="1117.12" y="730.5" width="110.63" height="30" as="geometry" />
        </mxCell>
        <mxCell id="v_WaZDUk3BbskPpl2pJ--24" value="&lt;span style=&quot;font-size: 22px;&quot;&gt;&lt;b&gt;策略调控&lt;/b&gt;&lt;/span&gt;&lt;br style=&quot;font-size: 18px&quot;&gt;&lt;br&gt;调整排序&lt;br&gt;策略变更&lt;br&gt;圈集变更" style="rounded=0;whiteSpace=wrap;html=1;strokeWidth=1;fontSize=18;fontColor=#FF0000;align=center;verticalAlign=top;" vertex="1" parent="1">
          <mxGeometry x="400" y="260" width="120" height="140" as="geometry" />
        </mxCell>
        <mxCell id="v_WaZDUk3BbskPpl2pJ--25" style="edgeStyle=orthogonalEdgeStyle;rounded=0;orthogonalLoop=1;jettySize=auto;html=1;strokeWidth=3;dashed=1;fontColor=#FF0000;" edge="1" parent="1" target="v_WaZDUk3BbskPpl2pJ--27">
          <mxGeometry relative="1" as="geometry">
            <mxPoint x="520" y="275" as="sourcePoint" />
          </mxGeometry>
        </mxCell>
        <mxCell id="v_WaZDUk3BbskPpl2pJ--26" value="策略同步" style="edgeLabel;html=1;align=center;verticalAlign=middle;resizable=0;points=[];fontSize=18;fontColor=#FF0000;" vertex="1" connectable="0" parent="v_WaZDUk3BbskPpl2pJ--25">
          <mxGeometry x="-0.1013" y="3" relative="1" as="geometry">
            <mxPoint x="30" y="-12" as="offset" />
          </mxGeometry>
        </mxCell>
        <mxCell id="v_WaZDUk3BbskPpl2pJ--27" value="策略详情" style="whiteSpace=wrap;html=1;strokeWidth=1;fontSize=18;fontColor=#FF0000;align=center;" vertex="1" parent="1">
          <mxGeometry x="1132.12" y="260" width="99.5" height="30" as="geometry" />
        </mxCell>
        <mxCell id="v_WaZDUk3BbskPpl2pJ--32" style="edgeStyle=orthogonalEdgeStyle;rounded=0;orthogonalLoop=1;jettySize=auto;html=1;exitX=1;exitY=0.5;exitDx=0;exitDy=0;entryX=0;entryY=0.5;entryDx=0;entryDy=0;strokeWidth=3;fontSize=18;startArrow=none;startFill=0;endArrow=classic;endFill=1;fontColor=#FF0000;" edge="1" parent="1" source="v_WaZDUk3BbskPpl2pJ--28" target="v_WaZDUk3BbskPpl2pJ--31">
          <mxGeometry relative="1" as="geometry" />
        </mxCell>
        <mxCell id="v_WaZDUk3BbskPpl2pJ--28" value="活动变更" style="whiteSpace=wrap;html=1;strokeWidth=1;fontSize=18;fontColor=#FF0000;align=center;" vertex="1" parent="1">
          <mxGeometry x="657.5" y="315" width="85" height="30" as="geometry" />
        </mxCell>
        <mxCell id="v_WaZDUk3BbskPpl2pJ--29" style="edgeStyle=orthogonalEdgeStyle;rounded=0;orthogonalLoop=1;jettySize=auto;html=1;exitX=0;exitY=0.5;exitDx=0;exitDy=0;entryX=1;entryY=0.5;entryDx=0;entryDy=0;fontSize=18;fontColor=#FF0000;strokeWidth=3;startArrow=classic;startFill=1;endArrow=none;endFill=0;" edge="1" parent="1" source="v_WaZDUk3BbskPpl2pJ--28" target="v_WaZDUk3BbskPpl2pJ--24">
          <mxGeometry relative="1" as="geometry">
            <mxPoint x="519.9999999999998" y="334.09" as="targetPoint" />
            <mxPoint x="690.25" y="334.09" as="sourcePoint" />
          </mxGeometry>
        </mxCell>
        <mxCell id="v_WaZDUk3BbskPpl2pJ--30" value="策略变更" style="edgeLabel;html=1;align=center;verticalAlign=middle;resizable=0;points=[];fontSize=18;fontColor=#FF0000;" vertex="1" connectable="0" parent="v_WaZDUk3BbskPpl2pJ--29">
          <mxGeometry x="-0.0207" y="-5" relative="1" as="geometry">
            <mxPoint x="-7" y="-11" as="offset" />
          </mxGeometry>
        </mxCell>
        <mxCell id="v_WaZDUk3BbskPpl2pJ--31" value="活动变更" style="whiteSpace=wrap;html=1;strokeWidth=1;fontSize=18;fontColor=#FF0000;align=center;" vertex="1" parent="1">
          <mxGeometry x="907.5" y="315" width="85" height="30" as="geometry" />
        </mxCell>
      </root>
    </mxGraphModel>
  </diagram>
  <diagram id="h4piJ4crIUmbmYhTjFfq" name="第 2 页">
    <mxGraphModel dx="946" dy="614" grid="1" gridSize="10" guides="1" tooltips="1" connect="1" arrows="1" fold="1" page="1" pageScale="1" pageWidth="827" pageHeight="1169" math="0" shadow="0">
      <root>
        <mxCell id="0" />
        <mxCell id="1" parent="0" />
        <mxCell id="D-Up0zzskR67IsRDXg_i-1" value="" style="rounded=1;whiteSpace=wrap;html=1;dashed=1;arcSize=17;" vertex="1" parent="1">
          <mxGeometry x="110" y="130" width="580" height="360" as="geometry" />
        </mxCell>
        <mxCell id="D-Up0zzskR67IsRDXg_i-2" style="edgeStyle=orthogonalEdgeStyle;rounded=0;orthogonalLoop=1;jettySize=auto;html=1;exitX=0.5;exitY=1;exitDx=0;exitDy=0;fontSize=16;fontColor=#000000;dashed=1;" edge="1" parent="1" source="D-Up0zzskR67IsRDXg_i-3" target="D-Up0zzskR67IsRDXg_i-5">
          <mxGeometry relative="1" as="geometry" />
        </mxCell>
        <mxCell id="D-Up0zzskR67IsRDXg_i-3" value="创建活动" style="rounded=1;whiteSpace=wrap;html=1;fillColor=#1ba1e2;strokeColor=#006EAF;fontColor=#000000;fontSize=16;" vertex="1" parent="1">
          <mxGeometry x="160" y="154" width="100" height="50" as="geometry" />
        </mxCell>
        <mxCell id="D-Up0zzskR67IsRDXg_i-4" style="edgeStyle=orthogonalEdgeStyle;rounded=0;orthogonalLoop=1;jettySize=auto;html=1;exitX=0.5;exitY=1;exitDx=0;exitDy=0;dashed=1;fontSize=16;fontColor=#000000;" edge="1" parent="1" source="D-Up0zzskR67IsRDXg_i-5" target="D-Up0zzskR67IsRDXg_i-8">
          <mxGeometry relative="1" as="geometry" />
        </mxCell>
        <mxCell id="D-Up0zzskR67IsRDXg_i-5" value="冲突校验" style="rounded=1;whiteSpace=wrap;html=1;fillColor=#1ba1e2;strokeColor=#006EAF;fontColor=#000000;fontSize=16;" vertex="1" parent="1">
          <mxGeometry x="160" y="264" width="100" height="50" as="geometry" />
        </mxCell>
        <mxCell id="D-Up0zzskR67IsRDXg_i-6" style="edgeStyle=orthogonalEdgeStyle;rounded=0;orthogonalLoop=1;jettySize=auto;html=1;exitX=0.5;exitY=1;exitDx=0;exitDy=0;entryX=0.5;entryY=0;entryDx=0;entryDy=0;dashed=1;fontSize=14;fontColor=#000000;" edge="1" parent="1" source="D-Up0zzskR67IsRDXg_i-8" target="D-Up0zzskR67IsRDXg_i-40">
          <mxGeometry relative="1" as="geometry" />
        </mxCell>
        <mxCell id="D-Up0zzskR67IsRDXg_i-7" value="上活动" style="edgeLabel;html=1;align=center;verticalAlign=middle;resizable=0;points=[];fontSize=14;fontColor=#000000;" vertex="1" connectable="0" parent="D-Up0zzskR67IsRDXg_i-6">
          <mxGeometry x="-0.1364" y="2" relative="1" as="geometry">
            <mxPoint as="offset" />
          </mxGeometry>
        </mxCell>
        <mxCell id="D-Up0zzskR67IsRDXg_i-8" value="保存玩法" style="rounded=1;whiteSpace=wrap;html=1;fillColor=#1ba1e2;strokeColor=#006EAF;fontColor=#000000;fontSize=16;" vertex="1" parent="1">
          <mxGeometry x="160" y="390" width="100" height="50" as="geometry" />
        </mxCell>
        <mxCell id="D-Up0zzskR67IsRDXg_i-9" style="edgeStyle=orthogonalEdgeStyle;rounded=0;orthogonalLoop=1;jettySize=auto;html=1;exitX=1;exitY=0.75;exitDx=0;exitDy=0;entryX=0;entryY=0.5;entryDx=0;entryDy=0;fontSize=14;fontColor=#000000;dashed=1;" edge="1" parent="1" source="D-Up0zzskR67IsRDXg_i-10" target="D-Up0zzskR67IsRDXg_i-3">
          <mxGeometry relative="1" as="geometry" />
        </mxCell>
        <mxCell id="D-Up0zzskR67IsRDXg_i-10" value="&lt;br&gt;商户" style="shape=actor;whiteSpace=wrap;html=1;fillColor=#176FBD;fontSize=16;fontColor=#ffffff;strokeColor=#006EAF;" vertex="1" parent="1">
          <mxGeometry x="10" y="134" width="70" height="60" as="geometry" />
        </mxCell>
        <mxCell id="D-Up0zzskR67IsRDXg_i-11" style="edgeStyle=orthogonalEdgeStyle;rounded=0;orthogonalLoop=1;jettySize=auto;html=1;exitX=1;exitY=0.5;exitDx=0;exitDy=0;entryX=0;entryY=0.5;entryDx=0;entryDy=0;dashed=1;fontSize=14;fontColor=#000000;" edge="1" parent="1" source="D-Up0zzskR67IsRDXg_i-15" target="D-Up0zzskR67IsRDXg_i-46">
          <mxGeometry relative="1" as="geometry" />
        </mxCell>
        <mxCell id="D-Up0zzskR67IsRDXg_i-12" value="异常" style="edgeLabel;html=1;align=center;verticalAlign=middle;resizable=0;points=[];fontSize=14;fontColor=#000000;" vertex="1" connectable="0" parent="D-Up0zzskR67IsRDXg_i-11">
          <mxGeometry x="-0.0909" y="-2" relative="1" as="geometry">
            <mxPoint y="-11" as="offset" />
          </mxGeometry>
        </mxCell>
        <mxCell id="D-Up0zzskR67IsRDXg_i-13" style="edgeStyle=orthogonalEdgeStyle;rounded=0;orthogonalLoop=1;jettySize=auto;html=1;exitX=0.5;exitY=1;exitDx=0;exitDy=0;dashed=1;fontSize=14;fontColor=#000000;" edge="1" parent="1" source="D-Up0zzskR67IsRDXg_i-15" target="D-Up0zzskR67IsRDXg_i-40">
          <mxGeometry relative="1" as="geometry" />
        </mxCell>
        <mxCell id="D-Up0zzskR67IsRDXg_i-14" value="下补贴" style="edgeLabel;html=1;align=center;verticalAlign=middle;resizable=0;points=[];fontSize=14;fontColor=#000000;" vertex="1" connectable="0" parent="D-Up0zzskR67IsRDXg_i-13">
          <mxGeometry x="-0.2692" y="2" relative="1" as="geometry">
            <mxPoint as="offset" />
          </mxGeometry>
        </mxCell>
        <mxCell id="D-Up0zzskR67IsRDXg_i-15" value="下补贴" style="rounded=1;whiteSpace=wrap;html=1;fillColor=#1ba1e2;strokeColor=#006EAF;fontColor=#000000;fontSize=16;" vertex="1" parent="1">
          <mxGeometry x="380" y="264" width="100" height="50" as="geometry" />
        </mxCell>
        <mxCell id="D-Up0zzskR67IsRDXg_i-16" style="edgeStyle=orthogonalEdgeStyle;rounded=0;orthogonalLoop=1;jettySize=auto;html=1;exitX=0.5;exitY=1;exitDx=0;exitDy=0;entryX=0.5;entryY=0;entryDx=0;entryDy=0;dashed=1;fontSize=14;fontColor=#000000;" edge="1" parent="1" source="D-Up0zzskR67IsRDXg_i-18" target="D-Up0zzskR67IsRDXg_i-3">
          <mxGeometry relative="1" as="geometry" />
        </mxCell>
        <mxCell id="D-Up0zzskR67IsRDXg_i-17" value="选择预算" style="text;html=1;align=center;verticalAlign=middle;resizable=0;points=[];labelBackgroundColor=#ffffff;fontSize=14;fontColor=#000000;" vertex="1" connectable="0" parent="D-Up0zzskR67IsRDXg_i-16">
          <mxGeometry x="-0.7375" relative="1" as="geometry">
            <mxPoint y="9" as="offset" />
          </mxGeometry>
        </mxCell>
        <mxCell id="D-Up0zzskR67IsRDXg_i-18" value="预算池" style="rounded=1;whiteSpace=wrap;html=1;fillColor=#bac8d3;strokeColor=#23445d;fontSize=16;" vertex="1" parent="1">
          <mxGeometry x="230" y="10" width="100" height="50" as="geometry" />
        </mxCell>
        <mxCell id="D-Up0zzskR67IsRDXg_i-19" style="edgeStyle=orthogonalEdgeStyle;rounded=0;orthogonalLoop=1;jettySize=auto;html=1;exitX=0.5;exitY=1;exitDx=0;exitDy=0;entryX=0.5;entryY=0;entryDx=0;entryDy=0;dashed=1;fontSize=14;fontColor=#000000;" edge="1" parent="1" source="D-Up0zzskR67IsRDXg_i-21" target="D-Up0zzskR67IsRDXg_i-3">
          <mxGeometry relative="1" as="geometry" />
        </mxCell>
        <mxCell id="D-Up0zzskR67IsRDXg_i-20" value="算法锚点" style="text;html=1;align=center;verticalAlign=middle;resizable=0;points=[];labelBackgroundColor=#ffffff;fontSize=14;fontColor=#000000;" vertex="1" connectable="0" parent="D-Up0zzskR67IsRDXg_i-19">
          <mxGeometry x="-0.6133" y="-2" relative="1" as="geometry">
            <mxPoint as="offset" />
          </mxGeometry>
        </mxCell>
        <mxCell id="D-Up0zzskR67IsRDXg_i-21" value="B端算法" style="rounded=1;whiteSpace=wrap;html=1;fillColor=#bac8d3;strokeColor=#23445d;fontSize=16;" vertex="1" parent="1">
          <mxGeometry x="100" y="10" width="100" height="50" as="geometry" />
        </mxCell>
        <mxCell id="D-Up0zzskR67IsRDXg_i-22" style="edgeStyle=orthogonalEdgeStyle;rounded=0;orthogonalLoop=1;jettySize=auto;html=1;exitX=0.5;exitY=1;exitDx=0;exitDy=0;entryX=0.5;entryY=0;entryDx=0;entryDy=0;dashed=1;fontSize=14;fontColor=#000000;" edge="1" parent="1" source="D-Up0zzskR67IsRDXg_i-26" target="D-Up0zzskR67IsRDXg_i-15">
          <mxGeometry relative="1" as="geometry" />
        </mxCell>
        <mxCell id="D-Up0zzskR67IsRDXg_i-23" value="下补贴" style="edgeLabel;html=1;align=center;verticalAlign=middle;resizable=0;points=[];fontSize=14;fontColor=#000000;" vertex="1" connectable="0" parent="D-Up0zzskR67IsRDXg_i-22">
          <mxGeometry x="-0.2696" relative="1" as="geometry">
            <mxPoint as="offset" />
          </mxGeometry>
        </mxCell>
        <mxCell id="D-Up0zzskR67IsRDXg_i-24" style="edgeStyle=orthogonalEdgeStyle;rounded=0;orthogonalLoop=1;jettySize=auto;html=1;exitX=1;exitY=0.5;exitDx=0;exitDy=0;dashed=1;fontSize=14;fontColor=#000000;" edge="1" parent="1" source="D-Up0zzskR67IsRDXg_i-26" target="D-Up0zzskR67IsRDXg_i-46">
          <mxGeometry relative="1" as="geometry" />
        </mxCell>
        <mxCell id="D-Up0zzskR67IsRDXg_i-25" value="下活动" style="edgeLabel;html=1;align=center;verticalAlign=middle;resizable=0;points=[];fontSize=14;fontColor=#000000;" vertex="1" connectable="0" parent="D-Up0zzskR67IsRDXg_i-24">
          <mxGeometry x="0.5307" y="1" relative="1" as="geometry">
            <mxPoint as="offset" />
          </mxGeometry>
        </mxCell>
        <mxCell id="D-Up0zzskR67IsRDXg_i-26" value="调度服务" style="rounded=1;whiteSpace=wrap;html=1;fillColor=#1ba1e2;strokeColor=#006EAF;fontColor=#000000;fontSize=16;" vertex="1" parent="1">
          <mxGeometry x="380" y="154" width="100" height="50" as="geometry" />
        </mxCell>
        <mxCell id="D-Up0zzskR67IsRDXg_i-27" style="edgeStyle=orthogonalEdgeStyle;rounded=0;orthogonalLoop=1;jettySize=auto;html=1;exitX=0.5;exitY=1;exitDx=0;exitDy=0;dashed=1;fontSize=14;fontColor=#000000;" edge="1" parent="1" source="D-Up0zzskR67IsRDXg_i-29" target="D-Up0zzskR67IsRDXg_i-26">
          <mxGeometry relative="1" as="geometry" />
        </mxCell>
        <mxCell id="D-Up0zzskR67IsRDXg_i-28" value="熔断" style="text;html=1;align=center;verticalAlign=middle;resizable=0;points=[];labelBackgroundColor=#ffffff;fontSize=14;fontColor=#000000;" vertex="1" connectable="0" parent="D-Up0zzskR67IsRDXg_i-27">
          <mxGeometry x="-0.6413" y="1" relative="1" as="geometry">
            <mxPoint x="-1" y="13" as="offset" />
          </mxGeometry>
        </mxCell>
        <mxCell id="D-Up0zzskR67IsRDXg_i-29" value="预算管控" style="rounded=1;whiteSpace=wrap;html=1;fillColor=#bac8d3;strokeColor=#23445d;fontSize=16;" vertex="1" parent="1">
          <mxGeometry x="380" y="10" width="100" height="50" as="geometry" />
        </mxCell>
        <mxCell id="D-Up0zzskR67IsRDXg_i-30" value="" style="rounded=0;whiteSpace=wrap;html=1;fillColor=none;fontSize=14;fontColor=#000000;dashed=1;" vertex="1" parent="1">
          <mxGeometry x="678" y="5" width="120" height="115" as="geometry" />
        </mxCell>
        <mxCell id="D-Up0zzskR67IsRDXg_i-31" value="图例说明" style="text;html=1;align=center;verticalAlign=middle;resizable=0;points=[];autosize=1;fontSize=14;fontColor=#FF0000;" vertex="1" parent="1">
          <mxGeometry x="677" y="7" width="70" height="20" as="geometry" />
        </mxCell>
        <mxCell id="D-Up0zzskR67IsRDXg_i-32" value="" style="rounded=1;whiteSpace=wrap;html=1;fillColor=#1ba1e2;strokeColor=#006EAF;fontColor=#000000;fontSize=16;" vertex="1" parent="1">
          <mxGeometry x="692" y="33.5" width="40" height="15" as="geometry" />
        </mxCell>
        <mxCell id="D-Up0zzskR67IsRDXg_i-33" value="内部模块" style="text;html=1;align=center;verticalAlign=middle;resizable=0;points=[];autosize=1;fontSize=12;fontColor=#000000;" vertex="1" parent="1">
          <mxGeometry x="738" y="31" width="60" height="20" as="geometry" />
        </mxCell>
        <mxCell id="D-Up0zzskR67IsRDXg_i-34" value="" style="rounded=1;whiteSpace=wrap;html=1;fillColor=#bac8d3;strokeColor=#23445d;fontSize=16;" vertex="1" parent="1">
          <mxGeometry x="692" y="55.5" width="40" height="15" as="geometry" />
        </mxCell>
        <mxCell id="D-Up0zzskR67IsRDXg_i-35" value="外部系统" style="text;html=1;align=center;verticalAlign=middle;resizable=0;points=[];autosize=1;fontSize=12;fontColor=#000000;" vertex="1" parent="1">
          <mxGeometry x="738" y="53" width="60" height="20" as="geometry" />
        </mxCell>
        <mxCell id="D-Up0zzskR67IsRDXg_i-36" value="" style="endArrow=classic;html=1;dashed=1;fontSize=12;fontColor=#000000;" edge="1" parent="1">
          <mxGeometry width="50" height="50" relative="1" as="geometry">
            <mxPoint x="694" y="84" as="sourcePoint" />
            <mxPoint x="734" y="84" as="targetPoint" />
          </mxGeometry>
        </mxCell>
        <mxCell id="D-Up0zzskR67IsRDXg_i-37" value="依赖" style="text;html=1;align=center;verticalAlign=middle;resizable=0;points=[];autosize=1;fontSize=12;fontColor=#000000;" vertex="1" parent="1">
          <mxGeometry x="748" y="73" width="40" height="20" as="geometry" />
        </mxCell>
        <mxCell id="D-Up0zzskR67IsRDXg_i-38" value="" style="shape=actor;whiteSpace=wrap;html=1;fillColor=#176FBD;fontSize=16;fontColor=#ffffff;strokeColor=#006EAF;" vertex="1" parent="1">
          <mxGeometry x="701.5" y="95" width="21" height="13" as="geometry" />
        </mxCell>
        <mxCell id="D-Up0zzskR67IsRDXg_i-39" value="角色" style="text;html=1;align=center;verticalAlign=middle;resizable=0;points=[];autosize=1;fontSize=12;fontColor=#000000;" vertex="1" parent="1">
          <mxGeometry x="748" y="91.5" width="40" height="20" as="geometry" />
        </mxCell>
        <mxCell id="D-Up0zzskR67IsRDXg_i-40" value="底层" style="rounded=1;whiteSpace=wrap;html=1;fillColor=#bac8d3;strokeColor=#23445d;fontSize=16;" vertex="1" parent="1">
          <mxGeometry x="380" y="520" width="100" height="50" as="geometry" />
        </mxCell>
        <mxCell id="D-Up0zzskR67IsRDXg_i-41" style="edgeStyle=orthogonalEdgeStyle;rounded=0;orthogonalLoop=1;jettySize=auto;html=1;exitX=0.5;exitY=1;exitDx=0;exitDy=0;entryX=0.5;entryY=0;entryDx=0;entryDy=0;dashed=1;fontSize=14;fontColor=#000000;" edge="1" parent="1" source="D-Up0zzskR67IsRDXg_i-43" target="D-Up0zzskR67IsRDXg_i-26">
          <mxGeometry relative="1" as="geometry" />
        </mxCell>
        <mxCell id="D-Up0zzskR67IsRDXg_i-42" value="活动到期/活动延期" style="edgeLabel;html=1;align=center;verticalAlign=middle;resizable=0;points=[];fontSize=14;fontColor=#000000;" vertex="1" connectable="0" parent="D-Up0zzskR67IsRDXg_i-41">
          <mxGeometry x="-0.2611" y="2" relative="1" as="geometry">
            <mxPoint as="offset" />
          </mxGeometry>
        </mxCell>
        <mxCell id="D-Up0zzskR67IsRDXg_i-43" value="Workflow" style="rounded=1;whiteSpace=wrap;html=1;fillColor=#bac8d3;strokeColor=#23445d;fontSize=16;" vertex="1" parent="1">
          <mxGeometry x="530" y="10" width="100" height="50" as="geometry" />
        </mxCell>
        <mxCell id="D-Up0zzskR67IsRDXg_i-44" style="edgeStyle=orthogonalEdgeStyle;rounded=0;orthogonalLoop=1;jettySize=auto;html=1;exitX=0.5;exitY=1;exitDx=0;exitDy=0;entryX=0.5;entryY=0;entryDx=0;entryDy=0;dashed=1;fontSize=14;fontColor=#000000;" edge="1" parent="1" source="D-Up0zzskR67IsRDXg_i-46" target="D-Up0zzskR67IsRDXg_i-40">
          <mxGeometry relative="1" as="geometry">
            <Array as="points">
              <mxPoint x="610" y="480" />
              <mxPoint x="430" y="480" />
            </Array>
          </mxGeometry>
        </mxCell>
        <mxCell id="D-Up0zzskR67IsRDXg_i-45" value="下活动" style="edgeLabel;html=1;align=center;verticalAlign=middle;resizable=0;points=[];fontSize=14;fontColor=#000000;" vertex="1" connectable="0" parent="D-Up0zzskR67IsRDXg_i-44">
          <mxGeometry x="-0.6255" y="4" relative="1" as="geometry">
            <mxPoint as="offset" />
          </mxGeometry>
        </mxCell>
        <mxCell id="D-Up0zzskR67IsRDXg_i-46" value="下活动" style="rounded=1;whiteSpace=wrap;html=1;fillColor=#1ba1e2;strokeColor=#006EAF;fontColor=#000000;fontSize=16;" vertex="1" parent="1">
          <mxGeometry x="560" y="264" width="100" height="50" as="geometry" />
        </mxCell>
        <mxCell id="D-Up0zzskR67IsRDXg_i-47" style="edgeStyle=orthogonalEdgeStyle;rounded=0;orthogonalLoop=1;jettySize=auto;html=1;exitX=0;exitY=0.5;exitDx=0;exitDy=0;entryX=1;entryY=0.5;entryDx=0;entryDy=0;dashed=1;fontSize=14;fontColor=#000000;" edge="1" parent="1" source="D-Up0zzskR67IsRDXg_i-48" target="D-Up0zzskR67IsRDXg_i-46">
          <mxGeometry relative="1" as="geometry" />
        </mxCell>
        <mxCell id="D-Up0zzskR67IsRDXg_i-48" value="底层DRC" style="rounded=1;whiteSpace=wrap;html=1;fillColor=#bac8d3;strokeColor=#23445d;fontSize=16;" vertex="1" parent="1">
          <mxGeometry x="718" y="264" width="100" height="50" as="geometry" />
        </mxCell>
      </root>
    </mxGraphModel>
  </diagram>
</mxfile>
